<mxfile host="app.diagrams.net" modified="2022-09-25T06:15:12.722Z" agent="5.0 (X11; Linux x86_64) AppleWebKit/537.36 (KHTML, like Gecko) Chrome/105.0.0.0 Safari/537.36" etag="Gv-PcQJaL-sTxdUMAgz4" version="20.3.6" type="github">
  <diagram id="-5XcgP8HagqcglH2Njxg" name="Page-1">
    <mxGraphModel dx="1400" dy="750" grid="1" gridSize="10" guides="1" tooltips="1" connect="1" arrows="1" fold="1" page="1" pageScale="1" pageWidth="1600" pageHeight="900" math="0" shadow="0">
      <root>
        <mxCell id="0" />
        <mxCell id="1" parent="0" />
        <mxCell id="wfbPW_7dLeUYcAEyQuYo-3" style="edgeStyle=orthogonalEdgeStyle;rounded=0;orthogonalLoop=1;jettySize=auto;html=1;exitX=1;exitY=0.5;exitDx=0;exitDy=0;" edge="1" parent="1" source="wfbPW_7dLeUYcAEyQuYo-2">
          <mxGeometry relative="1" as="geometry">
            <mxPoint x="410" y="220" as="targetPoint" />
            <Array as="points">
              <mxPoint x="250" y="340" />
            </Array>
          </mxGeometry>
        </mxCell>
        <mxCell id="wfbPW_7dLeUYcAEyQuYo-5" style="edgeStyle=orthogonalEdgeStyle;rounded=0;orthogonalLoop=1;jettySize=auto;html=1;exitX=1;exitY=0.5;exitDx=0;exitDy=0;" edge="1" parent="1" source="wfbPW_7dLeUYcAEyQuYo-2">
          <mxGeometry relative="1" as="geometry">
            <mxPoint x="420" y="340" as="targetPoint" />
          </mxGeometry>
        </mxCell>
        <mxCell id="wfbPW_7dLeUYcAEyQuYo-13" style="edgeStyle=orthogonalEdgeStyle;rounded=0;orthogonalLoop=1;jettySize=auto;html=1;" edge="1" parent="1" source="wfbPW_7dLeUYcAEyQuYo-2">
          <mxGeometry relative="1" as="geometry">
            <mxPoint x="450" y="90" as="targetPoint" />
            <Array as="points">
              <mxPoint x="250" y="340" />
            </Array>
          </mxGeometry>
        </mxCell>
        <mxCell id="wfbPW_7dLeUYcAEyQuYo-16" style="edgeStyle=orthogonalEdgeStyle;rounded=0;orthogonalLoop=1;jettySize=auto;html=1;entryX=0;entryY=0.5;entryDx=0;entryDy=0;" edge="1" parent="1" source="wfbPW_7dLeUYcAEyQuYo-2" target="wfbPW_7dLeUYcAEyQuYo-9">
          <mxGeometry relative="1" as="geometry">
            <mxPoint x="250" y="480" as="targetPoint" />
            <Array as="points">
              <mxPoint x="250" y="340" />
              <mxPoint x="250" y="480" />
            </Array>
          </mxGeometry>
        </mxCell>
        <mxCell id="wfbPW_7dLeUYcAEyQuYo-17" style="edgeStyle=orthogonalEdgeStyle;rounded=0;orthogonalLoop=1;jettySize=auto;html=1;entryX=0;entryY=0.564;entryDx=0;entryDy=0;entryPerimeter=0;" edge="1" parent="1" source="wfbPW_7dLeUYcAEyQuYo-2" target="wfbPW_7dLeUYcAEyQuYo-18">
          <mxGeometry relative="1" as="geometry">
            <mxPoint x="250" y="630" as="targetPoint" />
            <Array as="points">
              <mxPoint x="250" y="340" />
              <mxPoint x="250" y="632" />
            </Array>
          </mxGeometry>
        </mxCell>
        <mxCell id="wfbPW_7dLeUYcAEyQuYo-2" value="AnimeApi" style="whiteSpace=wrap;html=1;aspect=fixed;" vertex="1" parent="1">
          <mxGeometry x="100" y="290" width="100" height="100" as="geometry" />
        </mxCell>
        <mxCell id="wfbPW_7dLeUYcAEyQuYo-9" value="POST&lt;br&gt;AddAnime&lt;br&gt;/anime" style="whiteSpace=wrap;html=1;aspect=fixed;" vertex="1" parent="1">
          <mxGeometry x="410" y="440" width="80" height="80" as="geometry" />
        </mxCell>
        <mxCell id="wfbPW_7dLeUYcAEyQuYo-10" value="GET&lt;br&gt;GetAllAnime&lt;br&gt;/anime" style="whiteSpace=wrap;html=1;aspect=fixed;" vertex="1" parent="1">
          <mxGeometry x="400" y="180" width="80" height="80" as="geometry" />
        </mxCell>
        <mxCell id="wfbPW_7dLeUYcAEyQuYo-12" value="GET&lt;br&gt;GetanimeBYTitle&lt;br&gt;/anime/:title" style="whiteSpace=wrap;html=1;aspect=fixed;" vertex="1" parent="1">
          <mxGeometry x="410" y="300" width="90" height="90" as="geometry" />
        </mxCell>
        <mxCell id="wfbPW_7dLeUYcAEyQuYo-15" value="DELETE&lt;br&gt;DeleteAnim&lt;br&gt;/anime" style="whiteSpace=wrap;html=1;aspect=fixed;" vertex="1" parent="1">
          <mxGeometry x="450" y="50" width="80" height="80" as="geometry" />
        </mxCell>
        <mxCell id="wfbPW_7dLeUYcAEyQuYo-19" style="edgeStyle=orthogonalEdgeStyle;rounded=0;orthogonalLoop=1;jettySize=auto;html=1;exitX=1;exitY=0.5;exitDx=0;exitDy=0;" edge="1" parent="1" source="wfbPW_7dLeUYcAEyQuYo-18">
          <mxGeometry relative="1" as="geometry">
            <mxPoint x="510" y="610" as="targetPoint" />
          </mxGeometry>
        </mxCell>
        <mxCell id="wfbPW_7dLeUYcAEyQuYo-18" value="PATCH&lt;br&gt;UpdateAnimeBYTitle&lt;br&gt;/anime/:title" style="whiteSpace=wrap;html=1;aspect=fixed;" vertex="1" parent="1">
          <mxGeometry x="395" y="570" width="110" height="110" as="geometry" />
        </mxCell>
      </root>
    </mxGraphModel>
  </diagram>
</mxfile>
